<?xml version="1.0" encoding="UTF-8"?>
<svg width="81px" height="81px" viewBox="0 0 81 81" version="1.1" xmlns="http://www.w3.org/2000/svg" xmlns:xlink="http://www.w3.org/1999/xlink">
    <!-- Generator: Sketch 52.6 (67491) - http://www.bohemiancoding.com/sketch -->
    <title>Group 7</title>
    <desc>Created with Sketch.</desc>
    <g id="Main-file" stroke="none" stroke-width="1" fill="none" fill-rule="evenodd">
        <g id="3-Homepage" transform="translate(-361.000000, -1606.000000)">
            <g id="Group-7" transform="translate(362.000000, 1607.000000)">
                <circle id="Oval-Copy-5" stroke="#E3E3E1" fill="#FEFCEF" cx="39.5" cy="39.5" r="39.5"></circle>
                <g id="info-(1)" transform="translate(23.000000, 23.000000)" fill="#3B3B3B" fill-rule="nonzero">
                    <path d="M29.020793,4.97927344 C25.809918,1.76826562 21.5409258,0 17,0 C12.4590742,0 8.19008203,1.76826562 4.97927344,4.97927344 C1.76826562,8.19008203 0,12.4590742 0,17 C0,21.5409258 1.76826562,25.809918 4.97927344,29.020793 C8.19008203,32.2317344 12.4590742,34 17,34 C21.5409258,34 25.809918,32.2317344 29.020793,29.020793 C32.2317344,25.809918 34,21.5409258 34,17 C34,12.4590742 32.2317344,8.19008203 29.020793,4.97927344 Z M17,32.6454453 C8.37309766,32.6454453 1.35455469,25.6269688 1.35455469,17 C1.35455469,8.37303125 8.37309766,1.35455469 17,1.35455469 C25.6269023,1.35455469 32.6454453,8.37309766 32.6454453,17 C32.6454453,25.6269023 25.6269023,32.6454453 17,32.6454453 Z" id="Shape"></path>
                    <path d="M30.6883867,19.7977617 C30.325543,19.7053242 29.9571211,19.9243984 29.8649492,20.2869766 C29.4871641,21.7704922 28.8583633,23.1674805 27.9961445,24.4392266 C27.7862344,24.7488789 27.8671172,25.1699609 28.1767031,25.3799375 C28.2931133,25.4588281 28.4253281,25.4966797 28.5562148,25.4966797 C28.7732305,25.4966797 28.9865273,25.3925547 29.1174141,25.1993125 C30.0678867,23.7974766 30.7610352,22.2571172 31.1776016,20.6212656 C31.2699062,20.2587539 31.0509648,19.89 30.6883867,19.7977617 Z" id="Shape"></path>
                    <path d="M30.9522188,16.3227227 C30.5782188,16.3227227 30.2749414,16.626 30.2749414,17 C30.2749414,17.1935742 30.2707578,17.3888086 30.262457,17.5803242 C30.2462539,17.9540586 30.5361172,18.2700859 30.9098516,18.2862227 C30.9198125,18.2866875 30.929707,18.2868867 30.9396016,18.2868867 C31.3001875,18.2868867 31.6000117,18.0025352 31.61575,17.6388281 C31.6249141,17.4279219 31.6294961,17.2130313 31.6294961,17 C31.6294961,16.626 31.3262188,16.3227227 30.9522188,16.3227227 Z" id="Shape"></path>
                    <path d="M17,11.4801133 C15.6929258,11.4801133 14.6294961,12.543543 14.6294961,13.8506172 L14.6294961,25.6354688 C14.6294961,26.942543 15.6929258,28.0059727 17,28.0059727 C18.3070742,28.0059727 19.3705039,26.942543 19.3705039,25.6354688 L19.3705039,13.8506172 C19.3705039,12.5434766 18.3070742,11.4801133 17,11.4801133 Z M18.0159492,25.6354688 C18.0159492,26.1956719 17.5602031,26.651418 17,26.651418 C16.4397969,26.651418 15.9840508,26.1956719 15.9840508,25.6354688 L15.9840508,13.8506172 C15.9840508,13.2904141 16.4397969,12.834668 17,12.834668 C17.5602031,12.834668 18.0159492,13.2904141 18.0159492,13.8506172 L18.0159492,25.6354688 Z" id="Shape"></path>
                    <path d="M18.6757617,6.68757422 C18.2340273,6.24676953 17.6231563,5.99402734 17,5.99402734 C16.3767773,5.99402734 15.7659063,6.24676953 15.3235078,6.68817187 C14.8824375,7.129375 14.6294961,7.7403125 14.6294961,8.36453125 C14.6294961,8.9876875 14.8822383,9.59855859 15.3241055,10.0413555 C15.7658398,10.4822266 16.3767109,10.7350352 17,10.7350352 C17.6232227,10.7350352 18.2340937,10.4822266 18.6768242,10.0403594 C19.1176953,9.598625 19.3705039,8.98775391 19.3705039,8.36453125 C19.3705039,7.7403125 19.1175625,7.12930859 18.6757617,6.68757422 Z M17.7189805,9.08258203 C17.5291914,9.27183984 17.2671523,9.38048047 17,9.38048047 C16.7326484,9.38048047 16.4706094,9.27183984 16.2819492,9.08364453 C16.0926914,8.89385547 15.9840508,8.63175 15.9840508,8.36459766 C15.9840508,8.09684766 16.0924922,7.83494141 16.2808203,7.64654687 C16.4706094,7.45728906 16.7327148,7.34864844 17,7.34864844 C17.2672188,7.34864844 17.5293242,7.45728906 17.7184492,7.64601562 C17.9075078,7.83507422 18.0158828,8.09691406 18.0158828,8.36453125 C18.0159492,8.63181641 17.9073086,8.89385547 17.7189805,9.08258203 Z" id="Shape"></path>
                </g>
            </g>
        </g>
    </g>
</svg>