<?xml version="1.0" encoding="UTF-8"?>
<svg width="81px" height="81px" viewBox="0 0 81 81" version="1.1" xmlns="http://www.w3.org/2000/svg" xmlns:xlink="http://www.w3.org/1999/xlink">
    <!-- Generator: Sketch 52.6 (67491) - http://www.bohemiancoding.com/sketch -->
    <title>Group 4</title>
    <desc>Created with Sketch.</desc>
    <g id="Mail-file" stroke="none" stroke-width="1" fill="none" fill-rule="evenodd">
        <g id="0-Homepage" transform="translate(-690.000000, -825.000000)">
            <g id="Group-4" transform="translate(691.000000, 826.000000)">
                <circle id="Oval-Copy" stroke="#E3E3E1" fill="#FEFCEF" cx="39.5" cy="39.5" r="39.5"></circle>
                <g id="smartphone-(16)" transform="translate(29.000000, 23.000000)" fill="#3B3B3B" fill-rule="nonzero">
                    <path d="M10.2266953,27.7666445 C9.18664063,27.7666445 8.34049219,28.6127266 8.34049219,29.6527813 C8.34049219,30.6928359 9.18664063,31.538918 10.2266953,31.538918 C11.26675,31.538918 12.112832,30.6928359 12.112832,29.6527813 C12.112832,28.6127266 11.2666836,27.7666445 10.2266953,27.7666445 Z M10.2266953,30.232707 C9.90688281,30.232707 9.64670313,29.9725273 9.64670313,29.6527813 C9.64670313,29.3330352 9.90688281,29.0728555 10.2266953,29.0728555 C10.5464414,29.0728555 10.8066211,29.3330352 10.8066211,29.6527813 C10.8064883,29.9725273 10.5463086,30.232707 10.2266953,30.232707 Z" id="Shape"></path>
                    <path d="M13.3202305,2.68593359 L9.97315625,2.68593359 C9.59238281,2.68593359 9.28372656,2.99458984 9.28372656,3.37536328 C9.28372656,3.75613672 9.59244922,4.06479297 9.97315625,4.06479297 L13.3202305,4.06479297 C13.7010039,4.06479297 14.0096602,3.75613672 14.0096602,3.37536328 C14.0096602,2.99458984 13.7010039,2.68593359 13.3202305,2.68593359 Z" id="Shape"></path>
                    <circle id="Oval" cx="7.85665625" cy="3.39236328" r="1"></circle>
                    <path d="M18.2684258,0 L2.18469922,0 C0.984273438,0 0.00763671875,0.976636719 0.00763671875,2.1770625 L0.00763671875,31.8228711 C0.00763671875,33.0232969 0.984273438,33.9999336 2.18469922,33.9999336 L18.2683594,33.9999336 C19.4687852,33.9999336 20.4454219,33.0232969 20.4454219,31.8228711 L20.4454219,2.1770625 C20.4454883,0.976636719 19.4688516,0 18.2684258,0 Z M18.9941133,31.8229375 C18.9941133,32.2231016 18.6685898,32.548625 18.2684258,32.548625 L2.18469922,32.548625 C1.78453516,32.548625 1.45901172,32.2231016 1.45901172,31.8229375 L1.45901172,2.1770625 C1.45901172,1.77689844 1.78453516,1.451375 2.18469922,1.451375 L18.2683594,1.451375 C18.6685234,1.451375 18.9940469,1.77689844 18.9940469,2.1770625 L18.9940469,31.8229375 L18.9941133,31.8229375 Z" id="Shape"></path>
                    <path d="M11.4496328,13.6268281 C11.1661445,13.3435391 10.7068125,13.3435391 10.4232578,13.6268281 L6.93732813,17.1128242 C6.65397266,17.3961797 6.65397266,17.8557109 6.93739453,18.1391328 C7.07910547,18.2808438 7.26484375,18.3517656 7.45051563,18.3517656 C7.6361875,18.3517656 7.82199219,18.2808438 7.96363672,18.1391992 L11.4495664,14.6532031 C11.7329883,14.3697813 11.7329883,13.91025 11.4496328,13.6268281 Z" id="Shape"></path>
                    <path d="M13.5157969,15.6470391 C13.232375,15.36375 12.7729766,15.36375 12.4894219,15.6470391 L11.1007344,17.0357266 C10.8174453,17.319082 10.8174453,17.7786133 11.1008008,18.0621016 C11.2425117,18.2037461 11.42825,18.274668 11.6139219,18.274668 C11.7995938,18.274668 11.985332,18.2037461 12.127043,18.0621016 L13.5157305,16.6734141 C13.7992188,16.3899922 13.7992188,15.9304609 13.5157969,15.6470391 Z" id="Shape"></path>
                    <path d="M16.8250859,5.37173437 L3.62817187,5.37173437 C3.26745313,5.37173437 2.97506641,5.66412109 2.97506641,6.02483984 L2.97506641,26.0313828 C2.97506641,26.3921016 3.26745312,26.6844883 3.62817187,26.6844883 L16.8250859,26.6844883 C17.1858047,26.6844883 17.4781914,26.3921016 17.4781914,26.0313828 L17.4781914,6.02483984 C17.4781914,5.6641875 17.1858047,5.37173437 16.8250859,5.37173437 Z M16.1719141,25.3782773 L4.28121094,25.3782773 L4.28121094,6.67801172 L16.1719141,6.67801172 L16.1719141,25.3782773 Z" id="Shape"></path>
                </g>
            </g>
        </g>
    </g>
</svg>