<?xml version="1.0" encoding="UTF-8"?>
<svg width="100px" height="100px" viewBox="0 0 100 100" version="1.1" xmlns="http://www.w3.org/2000/svg" xmlns:xlink="http://www.w3.org/1999/xlink">
    <!-- Generator: Sketch 52.6 (67491) - http://www.bohemiancoding.com/sketch -->
    <title>Group 7</title>
    <desc>Created with Sketch.</desc>
    <g id="Mail-file" stroke="none" stroke-width="1" fill="none" fill-rule="evenodd">
        <g id="0-Homepage" transform="translate(-981.000000, -1150.000000)">
            <g id="Group-7" transform="translate(982.000000, 1151.000000)">
                <circle id="Oval-Copy-4" stroke="#FEFCEF" fill="#FEFCEF" cx="49" cy="49" r="49"></circle>
                <g id="chauffeur-(4)" transform="translate(19.000000, 21.000000)" fill="#F8BD00" fill-rule="nonzero">
                    <path d="M21.0748505,16.4934518 L19.832402,16.4934518 C21.7052591,14.9805847 22.9075615,12.6687708 22.9075615,10.0793422 L22.9075615,6.82087375 C23.9979468,6.18497342 24.7400831,5.01581063 24.7400831,3.66504319 C24.7402724,1.6439103 23.0965515,0 21.0748505,0 L8.24663123,0 C6.22549834,0 4.58177741,1.6439103 4.58177741,3.66523256 C4.58177741,5.01581063 5.32391362,6.18497342 6.414299,6.82106312 L6.414299,10.0793422 C6.414299,12.6687708 7.61641196,14.9805847 9.48945847,16.4934518 L8.24700997,16.4934518 C3.70026578,16.4934518 0.000189368771,20.1933389 0.000189368771,24.7400831 L0.000189368771,33.9030698 C0.000189368771,36.9350532 2.46596013,39.4008239 5.49794352,39.4008239 L5.49794352,56.8106312 L23.8239169,56.8106312 L23.8239169,39.4010133 C26.8559003,39.4010133 29.3216711,36.9352425 29.3216711,33.9032591 L29.3216711,24.7402724 C29.3216711,20.1933389 25.6215947,16.4934518 21.0748505,16.4934518 Z M6.414299,3.66504319 C6.414299,2.65438206 7.23615947,1.83252159 8.2468206,1.83252159 L21.0750399,1.83252159 C22.085701,1.83252159 22.9075615,2.65438206 22.9075615,3.66504319 C22.9075615,4.67570432 22.085701,5.49756478 21.0750399,5.49756478 L8.24663123,5.49756478 C7.23615947,5.49756478 6.414299,4.67570432 6.414299,3.66504319 Z M20.6112757,7.33046512 C19.9085282,8.44660465 18.6742226,9.16298671 17.2969435,9.16298671 L12.0245382,9.16298671 C10.6472591,9.16298671 9.41314286,8.44641528 8.71020598,7.33046512 L20.6112757,7.33046512 Z M8.24663123,10.0793422 L8.24663123,9.56160797 C9.2673289,10.4550498 10.5887442,10.9956977 12.0245382,10.9956977 L17.2969435,10.9956977 C18.7327375,10.9956977 20.0541528,10.4550498 21.0748505,9.56160797 L21.0748505,10.0793422 C21.0748505,13.6161827 18.1975814,16.4934518 14.6607409,16.4934518 C11.1239003,16.4934518 8.24663123,13.6161827 8.24663123,10.0793422 Z M18.8052658,18.3259734 L17.8955382,20.602186 L17.0159203,20.015711 L18.7054684,18.3259734 L18.8052658,18.3259734 Z M15.1979801,19.2423289 L14.1240698,19.2423289 L13.2077143,18.3259734 L16.1143355,18.3259734 L15.1979801,19.2423289 Z M15.545093,30.8068904 L14.6609302,31.6910532 L13.7767674,30.8068904 L14.5876445,21.0748505 L14.7342159,21.0748505 L15.545093,30.8068904 Z M12.3066977,20.0164684 L11.4270797,20.6029435 L10.5162159,18.3259734 L10.6162027,18.3259734 L12.3066977,20.0164684 Z M5.49813289,37.5683023 C4.14736545,37.5683023 2.97820266,36.8261661 2.34230233,35.7357807 L5.49813289,35.7357807 L5.49813289,37.5683023 Z M13.7445748,54.9781096 L7.33065449,54.9781096 L7.33065449,53.145588 L13.7447641,53.145588 L13.7447641,54.9781096 L13.7445748,54.9781096 Z M21.9913953,54.9781096 L15.5770963,54.9781096 L15.5770963,53.145588 L21.991206,53.145588 L21.991206,54.9781096 L21.9913953,54.9781096 Z M21.9913953,51.3128771 L15.5770963,51.3128771 L15.5770963,41.2335349 L13.7445748,41.2335349 L13.7445748,51.3128771 L7.33065449,51.3128771 L7.33065449,37.5683023 L21.9913953,37.5683023 L21.9913953,51.3128771 Z M23.8239169,37.5683023 L23.8239169,35.7357807 L26.9797475,35.7357807 C26.3438472,36.8261661 25.1746844,37.5683023 23.8239169,37.5683023 Z M27.4891495,33.9030698 L23.8239169,33.9030698 L23.8239169,22.9073721 L21.9913953,22.9073721 L21.9913953,35.7355914 L7.33065449,35.7355914 L7.33065449,22.9073721 L5.49813289,22.9073721 L5.49813289,33.9030698 L1.83271096,33.9030698 L1.83271096,24.7400831 C1.83271096,21.2032425 4.70998007,18.3259734 8.2468206,18.3259734 L8.54280399,18.3259734 L10.5650731,23.3802259 L12.6744518,21.9737841 L11.8800498,31.501495 L14.6609302,34.2825648 L17.4418106,31.5016844 L16.6474086,21.9739734 L18.7567874,23.3804153 L20.7790565,18.3261628 L21.0750399,18.3261628 C24.6118804,18.3261628 27.4891495,21.2034319 27.4891495,24.7402724 L27.4891495,33.9030698 Z" id="Shape"></path>
                    <path d="M46.8441528,0 C44.7376146,0 42.9103953,1.42765116 42.3990997,3.46999336 L40.0598272,12.8282193 L38.4846578,12.8282193 L38.4846578,10.0793422 L32.9869037,10.0793422 C30.9655814,10.0793422 29.3216711,11.7232525 29.3216711,13.7445748 C29.3216711,15.765897 30.9655814,17.4098073 32.9869037,17.4098073 L37.3522326,17.4098073 L38.7412525,18.104412 L38.6257375,18.5662824 C34.1477342,20.3686944 31.1541927,24.7677309 31.1541927,29.6114053 L31.1541927,44.4124684 C31.1541927,46.5977841 32.7100465,48.4486744 34.8194252,48.8821395 L34.8194252,54.0619435 C34.8194252,55.5774618 36.0527841,56.8108206 37.5683023,56.8108206 L44.8987674,56.8108206 C46.4142857,56.8108206 47.6476445,55.5774618 47.6476445,54.0619435 L47.6476445,49.4801661 L56.8106312,49.4801661 L56.8106312,45.8149336 L56.8106312,38.4844684 L56.8106312,20.158495 L56.8106312,18.3259734 L56.8106312,0 L46.8441528,0 Z M36.6521362,15.5770963 L32.9869037,15.5770963 C31.9762425,15.5770963 31.1543821,14.7552359 31.1543821,13.7445748 C31.1543821,12.7339136 31.9762425,11.9120532 32.9869037,11.9120532 L36.6521362,11.9120532 L36.6521362,15.5770963 Z M38.4848472,15.9270498 L38.4848472,14.6607409 L39.6017442,14.6607409 L39.1957375,16.2826844 L38.4848472,15.9270498 Z M38.4846578,54.9781096 L37.5683023,54.9781096 C37.0636346,54.9781096 36.6521362,54.5666113 36.6521362,54.0617542 L36.6521362,49.1201761 C37.2615249,49.1824784 37.8726179,49.235691 38.4846578,49.2815183 L38.4846578,54.9781096 Z M44.8987674,54.9781096 L43.982412,54.9781096 L43.982412,54.0617542 L42.1498904,54.0617542 L42.1498904,54.9781096 L40.3173688,54.9781096 L40.3173688,49.3941927 C40.9284618,49.4235449 41.5387973,49.4455116 42.1498904,49.4583887 L42.1498904,52.2292326 L43.982412,52.2292326 L43.982412,49.4801661 L45.8149336,49.4801661 L45.8149336,54.0617542 L45.8151229,54.0617542 C45.8151229,54.5666113 45.4036246,54.9781096 44.8987674,54.9781096 Z M54.9781096,43.982412 L40.3173688,43.982412 C39.3067076,43.982412 38.4848472,43.1605515 38.4848472,42.1498904 C38.4848472,41.1392292 39.3067076,40.3173688 40.3173688,40.3173688 L54.9781096,40.3173688 L54.9781096,43.982412 Z M54.9781096,38.4846578 L40.3173688,38.4846578 C38.2960465,38.4846578 36.6521362,40.1285681 36.6521362,42.1498904 C36.6521362,44.1712126 38.2960465,45.8151229 40.3173688,45.8151229 L54.9781096,45.8151229 L54.9781096,47.6476445 L43.5517874,47.6476445 C40.8332093,47.6476445 38.0888771,47.4762658 35.3949169,47.1399468 C34.0223721,46.9685681 32.9869037,45.7958073 32.9869037,44.4120897 L32.9869037,29.6110266 C32.9869037,25.4326047 35.6157209,21.6401163 39.5275116,20.1730764 L39.5678472,20.158495 L54.9781096,20.158495 L54.9781096,38.4846578 Z M54.9781096,18.3259734 L40.5747209,18.3259734 L44.1776512,3.91444186 C44.4836711,2.68941528 45.580495,1.83252159 46.8441528,1.83252159 L54.9781096,1.83252159 L54.9781096,18.3259734 Z" id="Shape"></path>
                    <path d="M35.7359701,28.4053156 C35.7359701,31.437299 38.2017409,33.9030698 41.2337243,33.9030698 C44.2657076,33.9030698 46.7314784,31.437299 46.7314784,28.4053156 C46.7314784,25.3733322 44.2657076,22.9075615 41.2337243,22.9075615 C38.2017409,22.9075615 35.7359701,25.3733322 35.7359701,28.4053156 Z M41.2337243,24.7400831 C43.2550465,24.7400831 44.8989568,26.3839934 44.8989568,28.4053156 C44.8989568,30.4266379 43.2550465,32.0705482 41.2337243,32.0705482 C39.212402,32.0705482 37.5684917,30.4266379 37.5684917,28.4053156 C37.5684917,26.3839934 39.2122126,24.7400831 41.2337243,24.7400831 Z" id="Shape"></path>
                </g>
            </g>
        </g>
    </g>
</svg>