<?xml version="1.0" encoding="UTF-8"?>
<svg width="100px" height="100px" viewBox="0 0 100 100" version="1.1" xmlns="http://www.w3.org/2000/svg" xmlns:xlink="http://www.w3.org/1999/xlink">
    <!-- Generator: Sketch 52.6 (67491) - http://www.bohemiancoding.com/sketch -->
    <title>Group 6</title>
    <desc>Created with Sketch.</desc>
    <g id="Mail-file" stroke="none" stroke-width="1" fill="none" fill-rule="evenodd">
        <g id="0-Homepage" transform="translate(-365.000000, -1150.000000)">
            <g id="Group-6" transform="translate(366.000000, 1151.000000)">
                <circle id="Oval-Copy-3" stroke="#F8BD00" fill="#F8BD00" cx="49" cy="49" r="49"></circle>
                <g id="businessman-(2)" transform="translate(21.000000, 21.000000)" fill="#FEFCEF" fill-rule="nonzero">
                    <path d="M36.1,15.2 C34.5259687,15.2 33.25,16.4759687 33.25,18.05 L33.25,19 L35.15,19 L35.15,18.05 C35.15,17.5253625 35.5753625,17.1 36.1,17.1 C36.6246375,17.1 37.05,17.5253625 37.05,18.05 L37.05,19 L38.95,19 L38.95,18.05 C38.95,16.4759687 37.6740312,15.2 36.1,15.2 Z" id="Shape"></path>
                    <path d="M45.6,15.2 C44.0259688,15.2 42.75,16.4759687 42.75,18.05 L42.75,19 L44.65,19 L44.65,18.05 C44.65,17.5253625 45.0753625,17.1 45.6,17.1 C46.1246375,17.1 46.55,17.5253625 46.55,18.05 L46.55,19 L48.45,19 L48.45,18.05 C48.45,16.4759687 47.1740312,15.2 45.6,15.2 Z" id="Shape"></path>
                    <path d="M42.75,21.85 L42.75,22.8 C42.75,23.8493938 41.8993938,24.7 40.85,24.7 C39.8006063,24.7 38.95,23.8493938 38.95,22.8 L38.95,21.85 L37.05,21.85 L37.05,22.8 C37.05,24.8986688 38.7513313,26.6 40.85,26.6 C42.9486688,26.6 44.65,24.8986688 44.65,22.8 L44.65,21.85 L42.75,21.85 Z" id="Shape"></path>
                    <path d="M50.35,30.4 L45.6,30.4 L45.6,29.355 C49.0379312,27.7958125 51.471475,24.6243562 52.08755,20.9 L53.2,20.9 C54.7740313,20.9 56.05,19.6240312 56.05,18.05 C56.05,16.4759687 54.7740313,15.2 53.2,15.2 L52.25,15.2 L52.25,0 L38,0 C33.2801625,0.005225 29.455225,3.8301625 29.45,8.55 L29.45,15.2 L28.5,15.2 C26.9259687,15.2 25.65,16.4759687 25.65,18.05 C25.65,19.6240312 26.9259687,20.9 28.5,20.9 L29.61245,20.9 C30.228525,24.6243562 32.6620687,27.7958125 36.1,29.355 L36.1,30.4 L31.35,30.4 C27.6790812,30.4041563 24.7041563,33.3790812 24.7,37.05 L24.7,38 L19,38 L19,37.05 C19,35.4759687 17.7240312,34.2 16.15,34.2 L12.35,34.2 C10.7759688,34.2 9.5,35.4759687 9.5,37.05 L9.5,38 L0.95,38 C0.4253625,38 0,38.4253625 0,38.95 L0,56.05 C0,56.5746375 0.4253625,57 0.95,57 L56.05,57 C56.5746375,57 57,56.5746375 57,56.05 L57,37.05 C56.9958437,33.3790812 54.0209187,30.4041563 50.35,30.4 Z M52.25,17.1 L53.2,17.1 C53.7246375,17.1 54.15,17.5253625 54.15,18.05 C54.15,18.5746375 53.7246375,19 53.2,19 L52.25,19 L52.25,17.1 Z M29.45,19 L28.5,19 C27.9753625,19 27.55,18.5746375 27.55,18.05 C27.55,17.5253625 27.9753625,17.1 28.5,17.1 L29.45,17.1 L29.45,19 Z M48.45,32.3 L44.5474,37.5041 L44.37165,37.32835 L42.1933,35.15 L45.0433,32.3 L48.45,32.3 Z M42.3567,38 L41.4067,38.95 L40.2933,38.95 L39.3433,38 L40.85,36.4933 L42.3567,38 Z M39.3433,32.3 L42.3567,32.3 L40.85,33.8067 L39.3433,32.3 Z M31.35,8.55 C31.3541562,4.87908125 34.3290812,1.90415625 38,1.9 L50.35,1.9 L50.35,7.6 L41.8,7.6 L41.8,8.55 C41.8,10.1240312 40.5240312,11.4 38.95,11.4 L31.35,11.4 L31.35,8.55 Z M31.35,19 L31.35,13.3 L38.95,13.3 C41.2064875,13.2975062 43.1507812,11.7102937 43.605,9.5 L50.350052,9.5 L50.35,19 C50.3629437,22.9159 47.9579,26.4336312 44.3042,27.8426 C43.9399937,27.9849812 43.7001187,28.3360062 43.7,28.72705 L43.7,30.4 L38,30.4 L38,28.72705 C37.9998812,28.3360062 37.7600062,27.9849812 37.3958,27.8426 C33.7421,26.4336312 31.3370562,22.9159 31.35,19 Z M36.6567,32.3 L39.5067,35.15 L37.32835,37.32835 L37.1526,37.5041 L33.25,32.3 L36.6567,32.3 Z M11.4,37.05 C11.4,36.5253625 11.8253625,36.1 12.35,36.1 L16.15,36.1 C16.6746375,36.1 17.1,36.5253625 17.1,37.05 L17.1,38 L11.4,38 L11.4,37.05 Z M26.6,55.1 L1.9,55.1 L1.9,48.45 L11.4,48.45 L11.4,51.3 C11.4,51.8246375 11.8253625,52.25 12.35,52.25 L16.15,52.25 C16.6746375,52.25 17.1,51.8246375 17.1,51.3 L17.1,48.45 L26.6,48.45 L26.6,55.1 Z M13.3,50.35 L13.3,48.45 L15.2,48.45 L15.2,50.35 L13.3,50.35 Z M26.6,46.55 L1.9,46.55 L1.9,39.9 L26.6,39.9 L26.6,46.55 Z M28.5,55.1 L28.5,38.95 C28.5,38.4253625 28.0746375,38 27.55,38 L26.6,38 L26.6,37.05 C26.6079563,34.6052938 28.4737563,32.5675438 30.90825,32.34465 L36.29,39.52 C36.4547063,39.7412313 36.707525,39.8798125 36.98255,39.9 L37.05,39.9 C37.3019875,39.9 37.543525,39.799775 37.72165,39.62165 L38,39.3433 L38.88255,40.22585 L37.0633,51.14325 C37.0203125,51.3995125 37.0842,51.6620688 37.24,51.87 L39.6625,55.1 L28.5,55.1 Z M39.00415,51.0549 L40.70465,40.85 L40.99535,40.85 L42.69585,51.0549 L40.85,53.51635 L39.00415,51.0549 Z M55.1,55.1 L42.0375,55.1 L44.46,51.87 C44.6158,51.6620688 44.6796875,51.3995125 44.6367,51.14325 L42.81745,40.22585 L43.7,39.3433 L43.97835,39.62165 C44.156475,39.799775 44.3980125,39.9 44.65,39.9 L44.71745,39.9 C44.992475,39.8798125 45.2452937,39.7412313 45.41,39.52 L50.79175,32.34465 C53.2262437,32.5675438 55.0920438,34.6052938 55.1,37.05 L55.1,55.1 Z" id="Shape"></path>
                </g>
            </g>
        </g>
    </g>
</svg>