<?xml version="1.0" encoding="UTF-8"?>
<svg width="62px" height="50px" viewBox="0 0 62 50" version="1.1" xmlns="http://www.w3.org/2000/svg" xmlns:xlink="http://www.w3.org/1999/xlink">
    <!-- Generator: Sketch 52.6 (67491) - http://www.bohemiancoding.com/sketch -->
    <title>Group 8</title>
    <desc>Created with Sketch.</desc>
    <g id="Mail-file" stroke="none" stroke-width="1" fill="none" fill-rule="evenodd">
        <g id="0-Homepage" transform="translate(-215.000000, -452.000000)">
            <g id="Group-8" transform="translate(215.000000, 452.000000)">
                <rect id="Rectangle-3-Copy-3" stroke="#F8BD00" fill="#FFFFFF" x="0.5" y="0.5" width="61" height="49"></rect>
                <g id="filter-filled-tool-symbol-(1)" transform="translate(21.000000, 15.000000)" fill="#3B3B3B" fill-rule="nonzero">
                    <path d="M7.53530864,9.45061728 C7.74518519,9.67901235 7.86041152,9.97736626 7.86041152,10.2860082 L7.86041152,19.3806584 C7.86041152,19.9280041 8.52090535,20.2057819 8.91185185,19.8209877 L11.4488889,16.9135802 C11.7883951,16.5061728 11.9756379,16.3045062 11.9756379,15.9012346 L11.9756379,10.2880658 C11.9756379,9.97942387 12.0929218,9.68106996 12.3007407,9.45265432 L19.5805556,1.55349794 C20.125823,0.96090535 19.7060905,0 18.8994856,0 L0.936522634,0 C0.129938272,0 -0.291872428,0.958847737 0.255452675,1.55349794 L7.53530864,9.45061728 Z" id="Shape"></path>
                </g>
            </g>
        </g>
    </g>
</svg>