<?xml version="1.0" encoding="UTF-8"?>
<svg width="81px" height="81px" viewBox="0 0 81 81" version="1.1" xmlns="http://www.w3.org/2000/svg" xmlns:xlink="http://www.w3.org/1999/xlink">
    <!-- Generator: Sketch 52.6 (67491) - http://www.bohemiancoding.com/sketch -->
    <title>Group 5</title>
    <desc>Created with Sketch.</desc>
    <g id="Mail-file" stroke="none" stroke-width="1" fill="none" fill-rule="evenodd">
        <g id="0-Homepage" transform="translate(-1004.000000, -825.000000)">
            <g id="Group-5" transform="translate(1005.000000, 826.000000)">
                <circle id="Oval-Copy-2" stroke="#E3E3E1" fill="#FEFCEF" cx="39.5" cy="39.5" r="39.5"></circle>
                <g id="taxi-driver" transform="translate(26.000000, 23.000000)" fill="#3B3B3B" fill-rule="nonzero">
                    <path d="M14.3794102,16.4034727 L13.2460547,16.4034727 C12.933082,16.4034727 12.6794102,16.6571445 12.6794102,16.9701172 C12.6794102,17.2830898 12.933082,17.5367617 13.2460547,17.5367617 L14.3794102,17.5367617 C14.6923828,17.5367617 14.9460547,17.2830898 14.9460547,16.9701172 C14.9460547,16.6571445 14.6923828,16.4034727 14.3794102,16.4034727 Z" id="Shape"></path>
                    <path d="M14.9461211,18.6701172 L12.6794766,18.6701172 C12.3665039,18.6701172 12.112832,18.9238555 12.112832,19.2367617 C12.112832,19.5497344 12.3665039,19.8034063 12.6794766,19.8034063 L14.9461211,19.8034063 C15.2590938,19.8034063 15.5127656,19.549668 15.5127656,19.2367617 C15.5127656,18.9238555 15.2590937,18.6701172 14.9461211,18.6701172 Z" id="Shape"></path>
                    <path d="M12.1127656,12.4367617 L9.84612109,12.4367617 C9.53314844,12.4367617 9.27947656,12.6904336 9.27947656,13.0034062 C9.27947656,13.3163789 9.53314844,13.5700508 9.84612109,13.5700508 L10.4127656,13.5700508 L10.4127656,14.1366953 C10.4127656,14.449668 10.6665039,14.7033398 10.9794102,14.7033398 C11.2923828,14.7033398 11.5460547,14.449668 11.5460547,14.1366953 L11.5460547,13.5700508 L12.1126992,13.5700508 C12.4256719,13.5700508 12.6793437,13.3163789 12.6793437,13.0034062 C12.6793437,12.6904336 12.4257383,12.4367617 12.1127656,12.4367617 Z" id="Shape"></path>
                    <path d="M17.7794102,12.4367617 L15.5127656,12.4367617 C15.199793,12.4367617 14.9461211,12.6904336 14.9461211,13.0034062 C14.9461211,13.3163789 15.199793,13.5700508 15.5127656,13.5700508 L16.0794102,13.5700508 L16.0794102,14.1366953 C16.0794102,14.449668 16.333082,14.7033398 16.6460547,14.7033398 C16.9590273,14.7033398 17.2126992,14.449668 17.2126992,14.1366953 L17.2126992,13.5700508 L17.7793438,13.5700508 C18.0923164,13.5700508 18.3459883,13.3163789 18.3459883,13.0034062 C18.3459883,12.6904336 18.0923828,12.4367617 17.7794102,12.4367617 Z" id="Shape"></path>
                    <path d="M27.4819609,31.7532773 L26.7249297,29.3925352 C26.3778906,28.4688906 25.8377422,27.6299141 25.1406094,26.9316523 C24.6723125,26.5261094 24.1776523,26.1521094 23.65975,25.8121758 L23.606625,25.7778437 C23.3771914,25.6462266 23.139457,25.5296172 22.8949492,25.4286797 C22.0658008,25.0886133 21.1789453,24.9114414 20.2828594,24.906793 L18.4174414,23.0418398 C18.4160469,22.5358242 18.4458633,22.0302734 18.506625,21.5279102 C18.5774141,20.9279961 18.6783516,20.332 18.8091719,19.7422461 C19.5109531,18.9739922 19.9437891,17.9982188 20.0422031,16.9623477 C20.1137891,16.983 20.1875,16.9952852 20.261875,16.9990039 C20.3652031,16.9988711 20.4678008,16.9818047 20.5656836,16.948668 C20.8578711,16.85125 21.7460547,16.5552109 21.7460547,13.0036055 C21.7460547,12.6217695 21.7460547,11.4601914 20.9641211,11.1093672 C20.8386133,11.0547813 20.7032109,11.0267578 20.5663477,11.0270234 C20.6530742,10.3974258 20.6180781,9.75700391 20.4633516,9.14062109 C22.0187852,8.14153906 22.8794102,6.83446484 22.8794102,5.43495312 C22.8794102,2.38730469 18.8967617,0 13.8127656,0 C8.72876953,0 4.74612109,2.38730469 4.74612109,5.43482031 C4.74612109,6.83419922 5.60674609,8.14080859 7.16071875,9.14208203 C7.0071875,9.75819922 6.97278906,10.3978906 7.05938281,11.0268906 C6.92245313,11.0264258 6.78691797,11.0544492 6.66141016,11.1092344 C5.87947656,11.4600586 5.87947656,12.6216367 5.87947656,13.0034727 C5.87947656,16.5550781 6.76766016,16.8511172 7.05984766,16.9485352 C7.15773047,16.9817383 7.26032813,16.9987383 7.36365625,16.9988711 C7.43803125,16.9951523 7.51180859,16.9828672 7.58332813,16.9622148 C7.68174219,17.9981523 8.11451172,18.9739258 8.81642578,19.7421133 C8.94751172,20.3329297 9.04844922,20.9299883 9.11897266,21.5310977 C9.17980078,22.032332 9.20955078,22.5368203 9.20815625,23.041707 L7.34280469,24.9066602 C6.44605469,24.911375 5.55866797,25.0887461 4.72905469,25.4291445 C4.48514453,25.5300156 4.24800781,25.6464922 4.01903906,25.7777773 L3.96591406,25.8121094 C3.44880859,26.1517773 2.95467969,26.5251797 2.48671484,26.9299258 C1.78167969,27.6345625 1.23754688,28.4835664 0.891835938,29.4185 L0.143105469,31.7543398 C-0.141710937,32.6499609 0.353480469,33.6069414 1.24916797,33.8917578 C1.41617969,33.9448828 1.59036328,33.9718438 1.76560938,33.9717773 L13.069082,33.9717773 C13.1262578,33.9904375 13.1860234,34 13.2461875,34 L14.379543,34 C14.4364531,33.9998672 14.4928984,33.9903711 14.5466875,33.9717773 L25.8601211,33.9717773 C26.7998359,33.9723086 27.5620469,33.2108945 27.5625117,32.2711797 C27.5625117,32.0954023 27.5353516,31.9207539 27.4819609,31.7532773 Z M19.2121914,25.4397031 L18.2960508,26.2238281 C17.6490547,25.8200117 16.9503281,25.5057773 16.2189297,25.2896914 L17.750125,23.9770391 L19.2121914,25.4397031 Z M14.8151016,25.000293 C14.1492461,24.9204727 13.4762188,24.9204727 12.8103633,25.0001602 L10.3386563,22.8806719 C10.3342734,22.3859453 10.3028633,21.8918164 10.2445586,21.4004766 C10.238582,21.3474844 10.2280898,21.2922344 10.221582,21.239043 C10.5638398,21.5567969 10.9268828,21.878668 11.3352813,22.2095703 C12.7790195,23.3801133 14.844918,23.3805781 16.2891875,22.2106992 C16.6978516,21.8796641 17.0610273,21.5575273 17.4034844,21.2395742 C17.3971094,21.2913711 17.3868164,21.345625 17.3809727,21.3972227 C17.3227344,21.889625 17.2913242,22.3848828 17.286875,22.8807383 L14.8151016,25.000293 Z M20.4954922,12.1650938 C20.593707,12.433043 20.6336836,12.7188555 20.612832,13.0034727 C20.612832,14.7776484 20.366,15.5717344 20.2248867,15.8174375 C20.1355039,15.7390117 20.0542891,15.6516875 19.9824375,15.5569258 C19.949832,14.453918 20.0585391,13.3512422 20.3058359,12.275793 C20.3637422,12.2305039 20.4275586,12.19325 20.4954922,12.1650938 Z M5.87941016,5.43482031 C5.87941016,3.10342969 9.51236328,1.13335547 13.8127656,1.13335547 C18.113168,1.13335547 21.7461211,3.10342969 21.7461211,5.43482031 C21.7234766,6.09164453 21.4645586,6.71832031 21.0169141,7.1995 C21.0659883,7.14504688 21.1055664,7.08282422 21.1341211,7.01528906 C21.1946172,6.87816016 21.1946172,6.72190625 21.1341211,6.58477734 C21.1054336,6.51604688 21.0651914,6.45282812 21.0151211,6.39771094 C20.9880938,6.37333984 20.9596055,6.35062891 20.9299219,6.32964453 C20.8984453,6.30812891 20.8641797,6.29099609 20.8281211,6.27871094 C20.7959805,6.26244141 20.7617148,6.25088672 20.7263203,6.24437891 C20.4595,6.18381641 20.1888281,6.32898047 20.0916094,6.58471094 C20.0311133,6.72183984 20.0311133,6.87809375 20.0916094,7.01522266 C20.1204297,7.08388672 20.1606719,7.14710547 20.2106094,7.20228906 C20.4336016,7.42116406 20.7907344,7.42149609 21.014125,7.20295313 C20.7691523,7.48683984 20.4922383,7.74157422 20.1888945,7.96204297 C20.142875,7.94610547 20.0948633,7.93641016 20.0462539,7.93322266 L7.57947656,7.93322266 C7.53040234,7.93641016 7.48205859,7.94617188 7.43557422,7.96230859 C6.42898828,7.22088281 5.87941016,6.33914063 5.87941016,5.43482031 Z M19.0433867,9.06664453 C18.2138398,9.66708984 16.3190703,10.2 13.8127656,10.2 C11.3042695,10.2 9.40837109,9.66596094 8.58108203,9.06664453 L19.0433867,9.06664453 Z M7.64329297,15.556793 C7.57144141,15.6516211 7.49016016,15.7389453 7.40071094,15.8174375 C7.25959766,15.5717344 7.01276562,14.777582 7.01276562,13.0034727 C6.99191406,12.7188555 7.03195703,12.433043 7.13003906,12.1650938 C7.19803906,12.1938477 7.26192187,12.2314336 7.32009375,12.2768555 C7.56732422,13.3519062 7.67596484,14.4541836 7.64329297,15.556793 Z M8.71276562,16.9247617 C8.71276562,16.7997187 8.71774609,16.6740781 8.72770703,16.5578672 C8.89438672,14.8481719 8.74849219,13.1224727 8.29719531,11.4650391 C8.19891406,11.0980117 8.14811328,10.7199609 8.14612109,10.3399844 C8.14612109,10.271918 8.15687891,10.2062422 8.16006641,10.1388398 C9.36673437,10.8805977 11.4340273,11.3333555 13.8127656,11.3333555 C16.1917695,11.3333555 18.2593281,10.8805312 19.4653984,10.1394375 C19.4685859,10.2065742 19.4794102,10.2723164 19.4794102,10.3400508 C19.4776172,10.7177031 19.4273477,11.0935625 19.3299961,11.4584648 C18.8777695,13.1166953 18.7313438,14.8433906 18.8978242,16.5540156 C18.9077852,16.6740781 18.9127656,16.7997187 18.9127656,16.9247617 C18.9127656,18.022125 17.7274141,19.5865234 15.5741914,21.3308164 C14.5470859,22.1638828 13.0767852,22.163418 12.0502109,21.3296875 C9.89811719,19.5865234 8.71276562,18.022125 8.71276562,16.9247617 Z M9.87547266,23.9771055 L11.406668,25.2897578 C10.6752695,25.5059102 9.97654297,25.8200781 9.32948047,26.2237617 L8.41340625,25.4397695 L9.87547266,23.9771055 Z M1.76560937,32.8384219 C1.58398828,32.8395508 1.41292578,32.7530234 1.30627734,32.606 C1.19830078,32.4601719 1.16715625,32.2712461 1.22273828,32.0985234 L1.96203906,29.7898437 C2.25243359,29.0162109 2.705125,28.3136992 3.28963281,27.7295898 C3.33830859,27.6803164 3.48055078,27.5641055 4.60500781,26.7484375 C4.78364063,26.647168 4.96831641,26.5567891 5.15783984,26.477832 C5.85988672,26.1894961 6.61133984,26.0403477 7.37029687,26.0387539 L8.37562109,26.8993125 C8.177,27.0653281 7.98488672,27.2395781 7.80187109,27.4225273 C6.35102734,28.8689883 5.47645703,30.7942383 5.34178516,32.8384883 L1.76560937,32.8384883 L1.76560937,32.8384219 Z M8.7465,32.8384219 C8.94153516,31.2035664 9.91080078,29.7621523 11.3512852,28.9647461 C11.4769258,28.8946211 11.6074805,28.8342578 11.7386328,28.7756211 L12.5493867,32.8384219 L8.7465,32.8384219 Z M15.0758789,32.8384219 L15.886832,28.7756875 C16.0186484,28.8346562 16.15,28.895418 16.2769687,28.9664063 C17.7160586,29.7640781 18.6841289,31.2046289 18.8789648,32.8384219 L15.0758789,32.8384219 Z M20.0165039,32.8384219 C19.8182812,30.7905859 18.6248945,28.9714531 16.825418,27.9741641 C16.4444453,27.7622617 16.041625,27.5922617 15.6239961,27.4672852 C15.6147656,27.4645625 15.6057344,27.4670195 15.5965039,27.4648281 C15.5870078,27.4625039 15.5799687,27.4559297 15.5702734,27.4540703 C15.540457,27.4517461 15.5105078,27.4519453 15.4806914,27.4545352 C15.4451641,27.4513477 15.4094375,27.4515469 15.3739766,27.4551328 C15.3363906,27.4626367 15.2997344,27.4740586 15.2645391,27.489332 C15.1954102,27.5080586 15.1331211,27.546375 15.0852422,27.5996328 C15.0586133,27.6216133 15.0341758,27.6461172 15.0121953,27.6727461 C14.9907461,27.7046211 14.9726836,27.7386211 14.958207,27.7742148 C14.9431992,27.7977227 14.9300508,27.8224258 14.9188945,27.8479922 C14.9161055,27.8572891 14.9186289,27.8663203 14.9164375,27.8755508 C14.9141133,27.8850469 14.9075391,27.8920195 14.9056797,27.9017148 L13.9202773,32.8384883 L13.7052539,32.8384883 L12.7198516,27.9017148 C12.7179922,27.8921523 12.711418,27.8851133 12.7090938,27.8756836 C12.7069023,27.8663867 12.7093594,27.8572891 12.7066367,27.8479922 C12.6954141,27.8220938 12.6820664,27.7971914 12.666793,27.773418 C12.6523828,27.7382227 12.6344531,27.7045547 12.6132695,27.6729453 C12.5906914,27.6455859 12.5655898,27.6205508 12.5381641,27.5981055 C12.4900859,27.5450469 12.4277305,27.5070625 12.3585352,27.4886016 C12.3240039,27.4737266 12.2880117,27.4624375 12.2510898,27.4550664 C12.2156953,27.4514805 12.1800352,27.4512813 12.1445742,27.4544688 C12.1148906,27.4518125 12.0850742,27.4516133 12.0553242,27.4540039 C12.0456289,27.4558633 12.0385898,27.4624375 12.0290937,27.4647617 C12.0198633,27.4670195 12.010832,27.4645625 12.0016016,27.4672188 C11.5849687,27.5918633 11.1830781,27.7612656 10.8029687,27.9724375 C9.00203125,28.9695273 7.80751562,30.7893906 7.60909375,32.8383555 L6.46936328,32.8383555 C6.60562891,31.0943945 7.36272656,29.4570156 8.60319531,28.2236523 C8.91045703,27.9165234 9.24348437,27.6364219 9.59875781,27.3864023 C12.1330195,25.6297578 15.4911836,25.6295586 18.0257109,27.3858047 C18.3813828,27.6358906 18.714875,27.9161914 19.0223359,28.2236523 C20.2628711,29.4570156 21.0199687,31.0943945 21.1562344,32.8383555 L20.0165039,32.8383555 L20.0165039,32.8384219 Z M26.3192539,32.606 C26.2126055,32.7530234 26.041543,32.8395508 25.8599219,32.8384219 L22.2836797,32.8384219 C22.1490078,30.7941719 21.2745039,28.8688555 19.8235938,27.4224609 C19.6407109,27.2395781 19.4485313,27.0653945 19.2498438,26.8993125 L20.2552344,26.0387539 C21.0135938,26.0403477 21.7644492,26.1892969 22.4660313,26.4773008 C22.6562188,26.5563906 22.8413594,26.6469023 23.0205234,26.7484375 C24.1449805,27.5641055 24.2872227,27.6803164 24.3375586,27.73125 C24.9140977,28.3090508 25.3628047,29.0015352 25.6545937,29.7638125 L26.4021953,32.0974609 C26.4584414,32.2704492 26.4274961,32.4598398 26.3192539,32.606 Z" id="Shape"></path>
                    <path d="M8.54841016,5.26435547 C8.49415625,5.21322266 8.43067188,5.17284766 8.36134375,5.14535547 C8.22461328,5.08280078 8.06749609,5.08280078 7.93083203,5.14535547 C7.86210156,5.17404297 7.79888281,5.21428516 7.74376563,5.26435547 C7.64010547,5.37286328 7.58140234,5.51663281 7.57941016,5.66671094 C7.57735156,5.74101953 7.59289063,5.81479687 7.62476563,5.882 C7.65351953,5.95066406 7.69376172,6.01388281 7.74369922,6.06906641 C7.79875,6.11913672 7.86203516,6.15937891 7.93076563,6.18806641 C8.14160547,6.27851172 8.38624609,6.23136328 8.54841016,6.06906641 C8.59834766,6.01388281 8.63858984,5.95066406 8.66741016,5.882 C8.69642969,5.81386719 8.71183594,5.74075391 8.71276563,5.66671094 C8.71057422,5.51663281 8.65187109,5.37299609 8.54841016,5.26435547 Z" id="Shape"></path>
                    <path d="M10.809543,5.26435547 C10.7848398,5.23739453 10.7560859,5.21441797 10.7243438,5.19628906 C10.6955234,5.17377734 10.662918,5.15651172 10.6280547,5.14535547 C10.5941875,5.12815625 10.5577305,5.11660156 10.5201445,5.11102344 C10.3353359,5.07403516 10.1442188,5.13147656 10.0104766,5.26428906 C9.90681641,5.37279687 9.84811328,5.51656641 9.84612109,5.66664453 C9.84313281,5.9765625 10.091957,6.23030078 10.401875,6.23328906 C10.4055273,6.23328906 10.4091133,6.23328906 10.4127656,6.23328906 C10.7248086,6.23109766 10.9772852,5.9786875 10.9794102,5.66664453 C10.9776836,5.51550391 10.9167227,5.37100391 10.809543,5.26435547 Z" id="Shape"></path>
                    <path d="M15.3484766,5.26435547 C15.3206523,5.23865625 15.2902383,5.2158125 15.2576992,5.19628906 C15.2288789,5.17377734 15.1962734,5.15651172 15.1614102,5.14535547 C15.127543,5.12815625 15.0910859,5.11660156 15.0535,5.11102344 C14.8686914,5.07396875 14.6775078,5.13147656 14.5437656,5.26428906 C14.4401055,5.37279688 14.3814023,5.51656641 14.3794102,5.66664453 C14.3778828,5.81738672 14.4371172,5.96241797 14.5437656,6.069 C14.5988828,6.11907031 14.6621016,6.1593125 14.730832,6.18793359 C15.0157148,6.30992188 15.3454883,6.17790625 15.4674766,5.89302344 C15.4980898,5.82150391 15.5134961,5.74440625 15.5127656,5.66664453 C15.5105742,5.51663281 15.4518711,5.37299609 15.3484766,5.26435547 Z" id="Shape"></path>
                    <path d="M12.6827305,5.09674609 C12.5304609,5.09588281 12.3843008,5.15624609 12.2771211,5.26435547 C12.0579805,5.4878125 12.0579805,5.84554297 12.2771211,6.069 C12.3837031,6.17564844 12.5287344,6.23488281 12.6794766,6.23335547 C12.9893945,6.23634375 13.2431328,5.98751953 13.2461211,5.67760156 C13.2461875,5.67394922 13.2461875,5.67036328 13.2461211,5.66671094 C13.2479141,5.35373828 12.9957031,5.09853906 12.6827305,5.09674609 Z" id="Shape"></path>
                    <path d="M17.6151211,5.26435547 C17.4793867,5.13067969 17.2860781,5.07323828 17.0993438,5.11108984 C17.0638828,5.11746484 17.0296172,5.12908594 16.997543,5.14542188 C16.9612852,5.15764063 16.9268203,5.17477344 16.8951445,5.19635547 C16.8655938,5.21733984 16.8373047,5.24005078 16.8104102,5.26442188 C16.70675,5.37292969 16.6480469,5.51669922 16.6460547,5.66677734 C16.6430664,5.97669531 16.8918906,6.23043359 17.2018086,6.23342188 C17.2054609,6.23342188 17.2091133,6.23342188 17.2126992,6.23342188 C17.2867422,6.23249219 17.3598555,6.21708594 17.4279883,6.18806641 C17.4966523,6.15924609 17.5598711,6.11900391 17.6150547,6.06906641 C17.7205742,5.96182031 17.7796094,5.81725391 17.7794102,5.66677734 C17.7772188,5.51663281 17.7185156,5.37299609 17.6151211,5.26435547 Z" id="Shape"></path>
                    <path d="M19.4827305,5.09674609 C19.3304609,5.09588281 19.1843008,5.15624609 19.0771211,5.26435547 C18.9724648,5.37226563 18.9136289,5.51636719 18.9127656,5.66671094 C18.9112383,5.81745313 18.9704727,5.96248438 19.0771211,6.06906641 C19.1321719,6.11913672 19.195457,6.15937891 19.2641875,6.188 C19.3322539,6.21701953 19.4054336,6.23249219 19.4794766,6.23335547 C19.7893945,6.23634375 20.0431328,5.98751953 20.0461211,5.67760156 C20.0461211,5.67394922 20.0461211,5.67036328 20.0461211,5.66671094 C20.0479141,5.35373828 19.7957031,5.09853906 19.4827305,5.09674609 Z" id="Shape"></path>
                    <path d="M7.40954297,6.39764453 C7.27646484,6.26337109 7.08441797,6.20566406 6.89934375,6.24437891 C6.86388281,6.25075391 6.82961719,6.262375 6.79754297,6.27871094 C6.76128516,6.29092969 6.72682031,6.3080625 6.69514453,6.32964453 C6.66559375,6.35062891 6.63730469,6.37333984 6.61047656,6.39771094 C6.55921094,6.45189844 6.51883594,6.51538281 6.49147656,6.58477734 C6.46245703,6.65291016 6.44705078,6.72602344 6.44612109,6.80006641 C6.44313281,7.10998438 6.69195703,7.36372266 7.001875,7.36671094 C7.00552734,7.36671094 7.00911328,7.36671094 7.01276563,7.36671094 C7.32480859,7.36451953 7.57728516,7.11210938 7.57941016,6.80006641 C7.57768359,6.64879297 7.51672266,6.50435938 7.40954297,6.39764453 Z" id="Shape"></path>
                    <path d="M9.80069922,6.58471094 C9.77201172,6.51598047 9.73176953,6.45276172 9.68169922,6.39764453 C9.45452344,6.18793359 9.10429688,6.18793359 8.87705469,6.39764453 C8.82578906,6.45183203 8.78541406,6.51531641 8.75805469,6.58471094 C8.72617969,6.65191406 8.71064063,6.725625 8.71269922,6.8 C8.71223438,6.95054297 8.77126953,7.09517578 8.87705469,7.20235547 C9.10051172,7.42149609 9.45824219,7.42149609 9.68169922,7.20235547 C9.78721875,7.09504297 9.84632031,6.95054297 9.84605469,6.8 C9.84519141,6.72595703 9.82978516,6.65284375 9.80069922,6.58471094 Z" id="Shape"></path>
                    <path d="M11.9484766,6.39764453 C11.9206523,6.37194531 11.8902383,6.34910156 11.8576992,6.32957813 C11.8288789,6.30706641 11.7962734,6.28980078 11.7614102,6.27864453 C11.727543,6.26144531 11.6910859,6.24989062 11.6535,6.2443125 C11.4686914,6.2081875 11.2779727,6.2655625 11.1437656,6.39757813 C11.0925,6.45176563 11.052125,6.51525 11.0247656,6.58464453 C10.9957461,6.65277734 10.9803398,6.72589063 10.9794102,6.79993359 C10.9778828,6.95067578 11.0371172,7.09570703 11.1437656,7.20228906 C11.364168,7.42448438 11.7229609,7.42594531 11.9451563,7.20560938 C12.0532656,7.09842969 12.1136289,6.95220313 12.1127656,6.8 C12.1105742,6.64998828 12.0518711,6.50635156 11.9484766,6.39764453 Z" id="Shape"></path>
                    <path d="M14.3340547,6.58477734 C14.3053672,6.51604688 14.265125,6.45282813 14.2150547,6.39771094 C14.1598711,6.34777344 14.0966523,6.30753125 14.0279883,6.27871094 C13.8170156,6.18959375 13.5731719,6.23660938 13.4104102,6.39771094 C13.3591445,6.45189844 13.3187695,6.51538281 13.2914102,6.58477734 C13.2595352,6.65191406 13.2439961,6.72569141 13.2461211,6.8 C13.2456562,6.95054297 13.3046914,7.09517578 13.4104766,7.20235547 C13.6289531,7.42534766 13.9868164,7.429 14.2098086,7.21052344 C14.3762227,7.04742969 14.4255625,6.79900391 14.3340547,6.58477734 Z" id="Shape"></path>
                    <path d="M16.0794766,6.23335547 C15.7665039,6.23335547 15.512832,6.48702734 15.512832,6.8 C15.5113047,6.95074219 15.5705391,7.09577344 15.6771875,7.20235547 C15.8975898,7.42455078 16.2563828,7.42601172 16.4785781,7.20567578 C16.5866875,7.09849609 16.6471172,6.95226953 16.6461875,6.80006641 C16.6461211,6.48702734 16.3923828,6.23335547 16.0794766,6.23335547 Z" id="Shape"></path>
                    <path d="M18.3494414,6.23003516 C18.1971719,6.22917188 18.0510117,6.28953516 17.943832,6.39764453 C17.8391758,6.50555469 17.7803398,6.64965625 17.7794766,6.8 C17.7779492,6.95074219 17.8371836,7.09577344 17.943832,7.20235547 C18.1642344,7.42455078 18.5230273,7.42601172 18.7452227,7.20567578 C18.853332,7.09849609 18.9136953,6.95226953 18.912832,6.80006641 C18.914625,6.48702734 18.6623477,6.23189453 18.3494414,6.23003516 Z" id="Shape"></path>
                </g>
            </g>
        </g>
    </g>
</svg>