<?xml version="1.0" encoding="UTF-8"?>
<svg width="30px" height="30px" viewBox="0 0 30 30" version="1.1" xmlns="http://www.w3.org/2000/svg" xmlns:xlink="http://www.w3.org/1999/xlink">
    <!-- Generator: Sketch 51.3 (57544) - http://www.bohemiancoding.com/sketch -->
    <title>instagram</title>
    <desc>Created with Sketch.</desc>
    <defs></defs>
    <g id="Mail-file" stroke="none" stroke-width="1" fill="none" fill-rule="evenodd">
        <g id="0-Homepage" transform="translate(-1241.000000, -2407.000000)">
            <g id="Group-4" transform="translate(0.000000, 97.000000)">
                <g id="instagram" transform="translate(1241.000000, 2310.000000)">
                    <rect id="Rectangle-9-Copy-3" fill="#FFFFFF" x="0" y="0" width="30" height="30" rx="3"></rect>
                    <path d="M11.6957214,7.09818151 C10.3934153,7.1569419 9.26464389,7.47535972 8.35318884,8.38296961 C7.43854967,9.29534386 7.12411758,10.4284666 7.06521132,11.717225 C7.02859391,12.5216072 6.81446167,18.5985438 7.43536555,20.192221 C7.85407765,21.2673774 8.67876536,22.0939932 9.76375508,22.5140507 C10.2700306,22.7109774 10.8479488,22.8443794 11.6957214,22.8832883 C18.784374,23.2040883 21.412071,23.0293952 22.5201456,20.192221 C22.7167652,19.6871992 22.8520904,19.109918 22.8895038,18.2642448 C23.2134883,11.1574132 22.8369658,9.61693792 21.6015263,8.38296961 C20.6216126,7.4054825 19.4689603,6.74006072 11.6957214,7.09818151 M11.7609959,21.4539814 C10.984866,21.4190428 10.5637658,21.2896111 10.282767,21.1808249 C9.57589186,20.9060804 9.04493944,20.3772368 8.77190094,19.6744943 C8.29905876,18.4635537 8.45587679,12.7121815 8.49806641,11.7815438 C8.53946001,10.8699636 8.72413911,10.0369953 9.36733184,9.39380723 C10.1633625,8.59974783 11.191834,8.21065873 18.1945153,8.52669437 C19.1083584,8.56798545 19.9433945,8.75220723 20.5881793,9.39380723 C21.3842099,10.1878666 21.7790411,11.2241141 21.4574448,18.199926 C21.4224194,18.9741339 21.2926664,19.3941913 21.1836102,19.6744943 C20.4632025,21.5206824 18.8058668,21.7771635 11.7609959,21.4539814 M18.2717302,10.7516488 C18.2717302,11.2773161 18.6991987,11.7045201 19.226967,11.7045201 C19.7547353,11.7045201 20.1829997,11.2773161 20.1829997,10.7516488 C20.1829997,10.2259815 19.7547353,9.79877752 19.226967,9.79877752 C18.6991987,9.79877752 18.2717302,10.2259815 18.2717302,10.7516488 M10.8901384,14.9903379 C10.8901384,17.2422903 12.7202128,19.0678329 14.9777556,19.0678329 C17.2352984,19.0678329 19.0653728,17.2422903 19.0653728,14.9903379 C19.0653728,12.7383854 17.2352984,10.9136369 14.9777556,10.9136369 C12.7202128,10.9136369 10.8901384,12.7383854 10.8901384,14.9903379 M12.3245856,14.9903379 C12.3245856,13.5292686 13.5122632,12.3437379 14.9777556,12.3437379 C16.4432479,12.3437379 17.6309256,13.5292686 17.6309256,14.9903379 C17.6309256,16.4522012 16.4432479,17.6377319 14.9777556,17.6377319 C13.5122632,17.6377319 12.3245856,16.4522012 12.3245856,14.9903379" id="instagram-[#167]" fill="#761FB2"></path>
                </g>
            </g>
        </g>
    </g>
</svg>