<?xml version="1.0" encoding="UTF-8"?>
<svg width="81px" height="81px" viewBox="0 0 81 81" version="1.1" xmlns="http://www.w3.org/2000/svg" xmlns:xlink="http://www.w3.org/1999/xlink">
    <!-- Generator: Sketch 52.6 (67491) - http://www.bohemiancoding.com/sketch -->
    <title>Group 3</title>
    <desc>Created with Sketch.</desc>
    <g id="Mail-file" stroke="none" stroke-width="1" fill="none" fill-rule="evenodd">
        <g id="0-Homepage" transform="translate(-361.000000, -825.000000)">
            <g id="Group-3" transform="translate(362.000000, 826.000000)">
                <circle id="Oval" stroke="#E3E3E1" fill="#FEFCEF" cx="39.5" cy="39.5" r="39.5"></circle>
                <g id="loupe-(3)" transform="translate(22.000000, 23.000000)" fill="#3B3B3B" fill-rule="nonzero">
                    <path d="M22.2873305,0 C15.828946,0 10.5745875,5.2542851 10.5745875,11.712743 C10.5745875,14.3701771 11.4647559,16.8232441 12.9617106,18.7907646 L10.5889806,21.1634946 C10.5739266,21.1785486 10.5601944,21.1944104 10.5471965,21.2107127 C10.3529633,21.1702505 10.1533693,21.1490281 9.95039741,21.1490281 C9.17566739,21.1490281 8.44720086,21.4507689 7.89916199,21.9988078 L0.849559395,29.0484104 C0.301667387,29.5961555 0,30.3245486 0,31.0993521 C0,31.8741555 0.301667387,32.602622 0.849485961,33.1502203 C1.39752484,33.6982592 2.12599136,34 2.90072138,34 C3.6754514,34 4.40391793,33.6982592 4.9519568,33.1502203 L12.0015594,26.1006177 C12.5494514,25.552946 12.8511188,24.8245529 12.8511188,24.049676 C12.8511188,23.8466307 12.8298963,23.6469633 12.7894341,23.45273 C12.8057365,23.4398056 12.8215248,23.4260734 12.8365788,23.4110194 L15.2092354,21.0383629 C17.1768294,22.5353909 19.6298963,23.425486 22.2873305,23.425486 C28.7457149,23.425486 34.0000734,18.1712009 34.0000734,11.712743 C34.0000734,5.2542851 28.7457149,0 22.2873305,0 Z M4.1729676,32.371378 C3.83304104,32.7113045 3.3812743,32.8984881 2.90072138,32.8984881 C2.42016847,32.8984881 1.96840173,32.7113045 1.62840173,32.3713045 C1.28862203,32.0316717 1.10151188,31.5799784 1.10151188,31.0993521 C1.10151188,30.6187257 1.28862203,30.1670324 1.62847516,29.8273261 L7.99506695,23.4607343 L10.5393391,26.0050065 L4.1729676,32.371378 Z M11.3143629,25.2222721 L8.77882937,22.6867387 C9.1147905,22.3977019 9.53211663,22.251568 9.95039741,22.251568 C10.4111231,22.251568 10.8719957,22.4270022 11.2227171,22.777797 C11.5624968,23.1174298 11.7496069,23.5691231 11.7496069,24.0497495 C11.7496069,24.4849201 11.595689,24.8961512 11.3143629,25.2222721 Z M12.3171058,22.3728078 C12.223257,22.2409201 12.1183931,22.115568 12.0016328,21.9988812 C11.8847257,21.8820475 11.7592268,21.7771102 11.6272657,21.6831879 L13.6717451,19.6387084 C13.8920475,19.8780302 14.1221901,20.1081728 14.3615119,20.3284752 L12.3171058,22.3728078 Z M22.2873305,22.3239741 C16.4362462,22.3239741 11.6760994,17.5638272 11.6760994,11.712743 C11.6760994,5.86165875 16.4362462,1.10151188 22.2873305,1.10151188 C28.1384147,1.10151188 32.8985616,5.86165875 32.8985616,11.712743 C32.8985616,17.5638272 28.1384147,22.3239741 22.2873305,22.3239741 Z" id="Shape"></path>
                    <path d="M22.2873305,2.34989201 C17.1246177,2.34989201 12.9244795,6.55003024 12.9244795,11.712743 C12.9244795,16.8754557 17.1246177,21.075594 22.2873305,21.075594 C27.4500432,21.075594 31.6501814,16.8754557 31.6501814,11.712743 C31.6501814,6.55003024 27.4500432,2.34989201 22.2873305,2.34989201 Z M22.2873305,19.9740821 C17.7320648,19.9740821 14.0259914,16.2680821 14.0259914,11.712743 C14.0259914,7.15740389 17.7320648,3.45140389 22.2873305,3.45140389 C26.8425961,3.45140389 30.5486695,7.15740389 30.5486695,11.712743 C30.5486695,16.2680821 26.8425961,19.9740821 22.2873305,19.9740821 Z" id="Shape"></path>
                    <path d="M26.1117063,5.83346004 C25.8568898,5.66735205 25.5157149,5.73924406 25.3496069,5.99413391 C25.1834989,6.24895032 25.2554644,6.5901987 25.5102808,6.75623326 C27.1936847,7.85333909 28.1987041,9.70622894 28.1987041,11.712743 C28.1987041,13.0835378 27.7188855,14.4195248 26.8475896,15.4744795 C26.6538704,15.7089546 26.6869892,16.0561512 26.9215378,16.2498704 C27.0241987,16.3346868 27.1484492,16.3759568 27.2719654,16.3759568 C27.4305832,16.3759568 27.5880259,16.3077365 27.6969287,16.1759222 C28.7308078,14.9240907 29.300216,13.3390151 29.300216,11.7128164 C29.3002894,9.33252268 28.1083067,7.13471274 26.1117063,5.83346004 Z" id="Shape"></path>
                    <path d="M23.5617797,4.81544276 C23.1440864,4.7387041 22.7153045,4.69978402 22.2873305,4.69978402 C21.9830929,4.69978402 21.7365745,4.94637581 21.7365745,5.25053996 C21.7365745,5.5547041 21.9830929,5.8012959 22.2873305,5.8012959 C22.6487732,5.8012959 23.0105832,5.83412095 23.3627732,5.89881641 C23.3964795,5.90498488 23.429892,5.90799568 23.4629374,5.90799568 C23.7235551,5.90799568 23.9551663,5.72213391 24.004,5.45666955 C24.0589287,5.15749892 23.8609503,4.87044492 23.5617797,4.81544276 Z" id="Shape"></path>
                </g>
            </g>
        </g>
    </g>
</svg>