<?xml version="1.0" encoding="UTF-8"?>
<svg width="81px" height="81px" viewBox="0 0 81 81" version="1.1" xmlns="http://www.w3.org/2000/svg" xmlns:xlink="http://www.w3.org/1999/xlink">
    <!-- Generator: Sketch 52.6 (67491) - http://www.bohemiancoding.com/sketch -->
    <title>Group 9</title>
    <desc>Created with Sketch.</desc>
    <g id="Main-file" stroke="none" stroke-width="1" fill="none" fill-rule="evenodd">
        <g id="3-Homepage" transform="translate(-1004.000000, -1601.000000)">
            <g id="Group-9" transform="translate(1005.000000, 1602.000000)">
                <circle id="Oval-Copy-7" stroke="#E3E3E1" fill="#FEFCEF" cx="39.5" cy="39.5" r="39.5"></circle>
                <g id="rating-(3)" transform="translate(23.000000, 23.000000)" fill="#3B3B3B" fill-rule="nonzero">
                    <path d="M9.99062109,20.7189492 C10.4870742,20.4684648 11.0828711,20.6555312 11.3471016,21.1448125 L13.2223477,24.6171953 C13.3668477,24.8847461 13.6746406,25.0198164 13.969418,24.9454414 C14.2641953,24.8709336 14.4707187,24.605707 14.4707187,24.3016328 L14.4707187,19.2314492 C14.4706523,18.8647539 14.1733516,18.5674531 13.8065898,18.5674531 C13.4398281,18.5674531 13.1425273,18.8648203 13.1425273,19.2315156 L13.1425273,21.6746016 L12.5156523,20.5138203 C11.9072383,19.3873711 10.5352187,18.9564609 9.39236719,19.5332656 C8.41426953,20.0267305 7.91057812,21.1151289 8.16750391,22.1800859 L9.38320312,27.2190586 C9.66735547,28.3969727 10.1739687,29.4902852 10.8888984,30.4686484 L13.2704922,33.727668 C13.4005156,33.9056367 13.602457,34 13.8071875,34 C13.9431211,34 14.0803164,33.9583633 14.1984531,33.8720352 C14.4945586,33.6556172 14.5592383,33.2401133 14.3428203,32.9440078 L11.9612266,29.6849883 C11.3501562,28.8488008 10.9171875,27.9143984 10.6743398,26.9076133 L9.45864062,21.8685742 C9.34701172,21.4059883 9.56582031,20.9333086 9.99062109,20.7189492 Z" id="Shape"></path>
                    <path d="M24.9836914,17.8885156 C24.5918281,17.8885156 24.2229414,17.9888555 23.9012695,18.1650313 C23.5754141,17.3162266 22.7523086,16.7118633 21.7901484,16.7118633 C21.3751758,16.7118633 20.9863008,16.8247539 20.6516797,17.0206523 C20.2940156,16.2425039 19.5076992,15.7004961 18.5966719,15.7004961 C18.2641758,15.7004961 17.9485469,15.7732109 17.6639961,15.9026367 L17.6639961,12.7276875 C17.6639961,11.4811094 16.6498398,10.4668867 15.4031953,10.4668867 C14.1565508,10.4668867 13.1423945,11.481043 13.1423945,12.7276875 L13.1423945,13.8787734 C13.1423945,14.2454688 13.4396953,14.5428359 13.806457,14.5428359 C14.1732187,14.5428359 14.4705195,14.2454688 14.4705195,13.8787734 L14.4705195,12.7277539 C14.4705195,12.2135039 14.8889453,11.7950781 15.4031953,11.7950781 C15.9174453,11.7950781 16.3358711,12.2135039 16.3358711,12.7277539 L16.3358711,22.0981406 C16.3358711,22.4648359 16.6331719,22.7622031 16.9999336,22.7622031 C17.3666953,22.7622031 17.6639961,22.4648359 17.6639961,22.0981406 L17.6639961,17.9612305 C17.6639961,17.4469805 18.0823555,17.0285547 18.5966719,17.0285547 C19.1109883,17.0285547 19.5293477,17.4469805 19.5293477,17.9612305 L19.5293477,22.0981406 C19.5293477,22.4648359 19.8266484,22.7622031 20.1934102,22.7622031 C20.5601719,22.7622031 20.8574727,22.4648359 20.8574727,22.0981406 L20.8574727,18.9726641 C20.8574727,18.4583477 21.275832,18.0399219 21.7901484,18.0399219 C22.3044648,18.0399219 22.7228242,18.4583477 22.7228242,18.9726641 L22.7228242,22.0981406 C22.7228242,22.4648359 23.020125,22.7622031 23.3868867,22.7622031 C23.7536484,22.7622031 24.0509492,22.4648359 24.0509492,22.0981406 L24.0509492,20.1491836 C24.0509492,19.6349336 24.469375,19.2165078 24.983625,19.2165078 C25.497875,19.2165078 25.9163008,19.6349336 25.9163008,20.1491836 L25.9163008,25.7524766 C25.9163008,27.2455547 25.6897227,28.7250859 25.2429414,30.1497656 L24.3062148,33.1368516 C24.1965117,33.4868125 24.3912148,33.8594844 24.7411758,33.9691875 C24.8073164,33.9899727 24.8741875,33.9998008 24.9400625,33.9998008 C25.2225547,33.9997344 25.4845273,33.8180469 25.5735117,33.5342266 L26.5102383,30.5471406 C26.9973945,28.9936328 27.2444258,27.3804258 27.2444258,25.7524766 L27.2444258,20.1491836 C27.2444922,18.9027383 26.2303359,17.8885156 24.9836914,17.8885156 Z" id="Shape"></path>
                    <path d="M33.9442852,3.52145703 C33.8117383,3.11378906 33.4658281,2.82233203 33.0415586,2.76077344 L31.0076016,2.46586328 L30.0975039,0.622957031 C29.9077813,0.238664063 29.5236875,0 29.095168,0 C29.0951016,0 29.0949688,0 29.0949023,0 C28.6661836,6.640625e-05 28.2820898,0.238996094 28.0925,0.623488281 L27.1833984,2.46679297 L25.1495742,2.76289844 C24.7253711,2.82465625 24.3795938,3.1163125 24.2473125,3.52411328 C24.1149648,3.93184766 24.2235391,4.37092578 24.5305352,4.67001953 L26.0026953,6.10426172 L25.6557891,8.13005078 C25.5834727,8.55259375 25.7540039,8.97155078 26.1008438,9.22336328 C26.2967422,9.36567187 26.5259102,9.43785547 26.7566055,9.43785547 C26.934375,9.43785547 27.1130742,9.39495703 27.2781602,9.30816406 L29.0970938,8.35125 L30.9165586,9.30723437 C31.2960039,9.50671875 31.747168,9.47391406 32.093875,9.22176953 C32.440582,8.96969141 32.6109141,8.55073437 32.5382656,8.12819141 L32.1902969,6.10260156 L33.6616602,4.66762891 C33.9685234,4.36826953 34.076832,3.92905859 33.9442852,3.52145703 Z M31.1839766,5.22889453 C30.9204102,5.48582031 30.8003477,5.85583594 30.8627031,6.21854687 L31.1572813,7.93335547 L29.6170547,7.12412891 C29.2911992,6.95280078 28.9021914,6.953 28.5764688,7.12432812 L27.0366406,7.93441797 L27.3303555,6.21934375 C27.3923789,5.85663281 27.2721172,5.48681641 27.0084844,5.22995703 L25.7621719,4.01578516 L27.4840859,3.76516797 C27.8481914,3.71210937 28.1628242,3.48340625 28.3255859,3.15330078 L29.0952344,1.59288672 L29.8656797,3.15283594 C30.0286406,3.482875 30.3433398,3.71137891 30.7076445,3.76430469 L32.4295586,4.01405859 L31.1839766,5.22889453 Z" id="Shape"></path>
                    <path d="M21.8483203,3.52145703 C21.7157734,3.11378906 21.3699297,2.82226562 20.9456602,2.76077344 L18.9117031,2.46586328 L18.0016055,0.622957031 C17.8118164,0.238664062 17.4277891,0 16.9992031,0 C16.9991367,0 16.9990039,0 16.9988711,0 C16.5702188,6.640625e-05 16.186125,0.238996094 15.9965352,0.623488281 L15.0874336,2.46679297 L13.0536094,2.76289844 C12.6294063,2.82465625 12.2836289,3.1163125 12.1513477,3.52411328 C12.019,3.93184766 12.1275742,4.37092578 12.4345703,4.67001953 L13.9066641,6.10419531 L13.5597578,8.12998437 C13.4874414,8.55252734 13.6579727,8.97148437 14.0048125,9.22329687 C14.2007109,9.36560547 14.4298789,9.43778906 14.6605742,9.43778906 C14.8383438,9.43778906 15.017043,9.39489062 15.1821289,9.30809766 L17.0011289,8.35125 L18.8205938,9.30716797 C19.2000391,9.50665234 19.6512031,9.47384766 19.9979102,9.22170312 C20.3446172,8.969625 20.5149492,8.55066797 20.4423008,8.128125 L20.094332,6.10253516 L21.5656953,4.6675625 C21.8725586,4.36826953 21.9808672,3.929125 21.8483203,3.52145703 Z M19.0880781,5.22889453 C18.8245781,5.48575391 18.7045156,5.85570312 18.7668047,6.21854687 L19.0613828,7.93335547 L17.5211562,7.12412891 C17.1952344,6.95286719 16.8061602,6.95293359 16.4805703,7.12432812 L14.9406758,7.93441797 L15.2343906,6.21934375 C15.2964141,5.85656641 15.1761523,5.48675 14.9125195,5.22995703 L13.6662734,4.01578516 L15.3881211,3.76516797 C15.7522266,3.71210937 16.0668594,3.48340625 16.2296875,3.15330078 L16.9993359,1.59282031 L17.7697812,3.15283594 C17.9326758,3.48280859 18.247375,3.71137891 18.6117461,3.76430469 L20.3336602,4.01405859 L19.0880781,5.22889453 Z" id="Shape"></path>
                    <path d="M9.75242188,3.52145703 C9.619875,3.11378906 9.27396484,2.82233203 8.84969531,2.76077344 L6.81573828,2.46586328 L5.90570703,0.622957031 C5.71591797,0.238664062 5.33189063,0 4.90330469,0 C4.90323828,0 4.90310547,0 4.90297266,0 C4.47432031,6.640625e-05 4.09022656,0.238996094 3.90063672,0.623488281 L2.99153516,2.46679297 L0.957710938,2.76289844 C0.533507813,2.82465625 0.187796875,3.1163125 0.0554492188,3.52404687 C-0.0768984375,3.93178125 0.0315429687,4.37085937 0.338605469,4.67001953 L1.81076562,6.10426172 L1.46385938,8.13005078 C1.39154297,8.55259375 1.56207422,8.97155078 1.90891406,9.22342969 C2.10487891,9.36567188 2.33398047,9.43792187 2.56474219,9.43785547 C2.74251172,9.43785547 2.92121094,9.39495703 3.08629688,9.30816406 L4.90529688,8.35131641 L6.72476172,9.30723438 C7.10427344,9.50658594 7.55537109,9.47384766 7.90207813,9.22183594 C8.24878516,8.96969141 8.41905078,8.55060156 8.34646875,8.128125 L7.9985,6.10253516 L9.46986328,4.6675625 C9.77666016,4.36826953 9.88496875,3.929125 9.75242188,3.52145703 Z M6.99217969,5.22882812 C6.72861328,5.4856875 6.60848437,5.85570312 6.67083984,6.21854687 L6.96541797,7.93335547 L5.42525781,7.12412891 C5.09940234,6.95286719 4.71032813,6.95293359 4.38467188,7.12432812 L2.84471094,7.93448437 L3.13835937,6.21954297 C3.20051562,5.85683203 3.08025391,5.48694922 2.81655469,5.23002344 L1.570375,4.01578516 L3.29222266,3.76516797 C3.65632813,3.71210938 3.97096094,3.48340625 4.13372266,3.15330078 L4.90337109,1.59282031 L5.67381641,3.15283594 C5.83671094,3.48280859 6.15141016,3.71137891 6.51578125,3.76430469 L8.23776172,4.01405859 L6.99217969,5.22882812 Z" id="Shape"></path>
                    <path d="M14.276082,16.1453516 C14.1525664,16.0217695 13.9813047,15.9507813 13.8065898,15.9507813 C13.6319414,15.9507813 13.4606133,16.0217695 13.3370977,16.1453516 C13.213582,16.2689336 13.1425273,16.4401289 13.1425273,16.6148437 C13.1425273,16.7894922 13.213582,16.9608203 13.3370977,17.0842695 C13.4606133,17.2077852 13.6319414,17.2789062 13.8065898,17.2789062 C13.9812383,17.2789062 14.1525664,17.2078516 14.276082,17.0842695 C14.3995977,16.9608203 14.4706523,16.7894922 14.4706523,16.6148438 C14.4706523,16.4400625 14.3995977,16.2688008 14.276082,16.1453516 Z" id="Shape"></path>
                </g>
            </g>
        </g>
    </g>
</svg>