<?xml version="1.0" encoding="UTF-8"?>
<svg width="30px" height="30px" viewBox="0 0 30 30" version="1.1" xmlns="http://www.w3.org/2000/svg" xmlns:xlink="http://www.w3.org/1999/xlink">
    <!-- Generator: Sketch 51.3 (57544) - http://www.bohemiancoding.com/sketch -->
    <title>Group 6</title>
    <desc>Created with Sketch.</desc>
    <defs></defs>
    <g id="Mail-file" stroke="none" stroke-width="1" fill="none" fill-rule="evenodd">
        <g id="0-Homepage" transform="translate(-1163.000000, -2407.000000)">
            <g id="Group-4" transform="translate(0.000000, 97.000000)">
                <g id="Group-6" transform="translate(1163.000000, 2310.000000)">
                    <rect id="Rectangle-9-Copy" fill="#FFFFFF" x="0" y="0" width="30" height="30" rx="3"></rect>
                    <path d="M12.110625,22 C18.2425625,22 21.5965625,16.9979681 21.5965625,12.6606874 C21.5965625,12.5182978 21.5965625,12.3767083 21.5868125,12.2359186 C22.23925,11.7719528 22.8023125,11.1959952 23.25,10.5368437 C22.64225,10.8024241 21.9963125,10.9768113 21.33575,11.0536056 C22.03125,10.6432358 22.5520625,9.99848328 22.8015,9.23773927 C22.146625,9.62011113 21.4308125,9.88969129 20.684125,10.0344806 C19.4215,8.71297789 17.3098125,8.6489826 15.96675,9.89209111 C15.1014375,10.6936321 14.733375,11.8887442 15.0023125,13.0286603 C12.321875,12.89587 9.82425,11.6495618 8.131,9.59931266 C7.2461875,11.0992023 7.69875,13.0174611 9.1636875,13.9805902 C8.633125,13.9653913 8.1139375,13.8246017 7.65,13.5702204 L7.65,13.6118174 C7.6508125,15.1741024 8.769625,16.5196033 10.32475,16.8291806 C9.834,16.9611708 9.318875,16.9803694 8.82,16.8851764 C9.2563125,18.222678 10.508375,19.1386106 11.9343125,19.1650086 C10.75375,20.0785414 9.2953125,20.5745049 7.7938125,20.572905 C7.5289375,20.5721051 7.2640625,20.5569062 7,20.5257085 C8.5250625,21.4888376 10.29875,22 12.110625,21.9976002" id="twitter-[#154]" fill="#1D9CEC"></path>
                </g>
            </g>
        </g>
    </g>
</svg>