<?xml version="1.0" encoding="UTF-8"?>
<svg width="81px" height="81px" viewBox="0 0 81 81" version="1.1" xmlns="http://www.w3.org/2000/svg" xmlns:xlink="http://www.w3.org/1999/xlink">
    <!-- Generator: Sketch 52.6 (67491) - http://www.bohemiancoding.com/sketch -->
    <title>Group 8</title>
    <desc>Created with Sketch.</desc>
    <g id="Main-file" stroke="none" stroke-width="1" fill="none" fill-rule="evenodd">
        <g id="3-Homepage" transform="translate(-690.000000, -1601.000000)">
            <g id="Group-8" transform="translate(691.000000, 1602.000000)">
                <circle id="Oval-Copy-6" stroke="#E3E3E1" fill="#FEFCEF" cx="39.5" cy="39.5" r="39.5"></circle>
                <g id="search-(10)" transform="translate(23.000000, 23.000000)" fill="#3B3B3B" fill-rule="nonzero">
                    <path d="M5.13481142,18.3888244 C8.7666626,22.0673676 14.713913,22.1042023 18.3908996,18.4744263 C22.0691834,14.8428345 22.107315,8.89662169 18.4765015,5.21885683 C14.8456879,1.54031369 8.89714052,1.503479 5.22015381,5.13325499 C1.54187012,8.76406857 1.50373839,14.7105408 5.13481142,18.3888244 Z M5.924942,5.84686279 C9.20945741,2.60437012 14.5201416,2.63861084 17.7623749,5.92312619 C21.0046082,9.20738222 20.9706268,14.5180664 17.6861114,17.7602997 C14.4021149,21.00383 9.09039307,20.9680328 5.84893799,17.6840362 C2.60644531,14.3995209 2.64068604,9.08909609 5.924942,5.84686279 Z" id="Shape"></path>
                    <path d="M6.51351932,17.1276245 C6.51351932,17.881958 7.12673947,18.4998474 7.8795166,18.5045166 C8.11868283,18.506073 12.6358643,18.5353851 12.9445496,18.537201 C13.2200317,18.537201 13.4441528,18.3146362 13.446228,18.0383759 C13.4480438,17.7615967 13.224701,17.5356598 12.9479218,17.5343628 L7.88626095,17.5014191 C7.68237305,17.5001221 7.51635742,17.3322906 7.51635742,17.1245117 C7.5267334,15.5234985 8.60661318,14.2060089 10.0366821,13.793045 C10.7321319,13.5930481 10.911377,12.7038269 10.3630066,12.2431336 C9.96716309,11.9121399 9.30310059,11.2395172 9.30310059,10.4491272 L9.32177734,7.54644775 C9.33111572,6.12026974 10.4473114,4.9586792 11.8091583,4.9586792 L11.8247223,4.95945741 C13.1868286,4.96827696 14.2947235,6.13505556 14.2947235,7.56045529 L14.2760468,10.4719543 C14.269043,11.4615631 13.1699677,12.2830811 13.2195129,12.2397613 C12.6693268,12.6944885 12.8353424,13.5987549 13.542984,13.7946015 C15.0918579,14.2335053 16.0946961,15.6365967 16.0946961,17.1584931 L16.0946961,17.181839 C16.093399,17.3888397 15.9253082,17.5517426 15.7196045,17.5517426 C15.7196045,17.5517426 15.7196045,17.5517426 15.7193451,17.5517426 C15.7193451,17.5517426 15.7185669,17.5517426 15.7175293,17.5517426 L15.7190857,17.5517426 C15.7183075,17.5517426 15.7177887,17.5517426 15.7170105,17.5517426 L15.7175293,17.5517426 C15.7157135,17.5517426 15.7131195,17.5517426 15.7087098,17.5514832 L15.7131195,17.5514832 C15.7055969,17.5514832 15.700409,17.5514832 15.6967773,17.5514832 L15.7022247,17.5514832 C15.6996308,17.5514832 15.696518,17.5514832 15.6931457,17.5514832 C15.6931457,17.5514832 15.6928863,17.5514832 15.692627,17.5514832 C15.69133,17.5514832 15.6905518,17.5514832 15.6902924,17.5514832 C15.6267395,17.5509644 15.4404907,17.5499268 14.9507446,17.546814 C14.6752625,17.546814 14.4503632,17.7696381 14.4490662,18.0451202 C14.4472504,18.3218994 14.6705933,18.5478363 14.9473725,18.5499115 C15.6552734,18.5548401 16.1930084,18.6477051 16.6884613,18.1587372 C16.9499359,17.9006348 17.0957184,17.5556336 17.0977936,17.1885834 L17.0977936,17.1584931 C17.0977936,15.2303772 15.8513794,13.4924012 14.0052338,12.8869629 C14.8228607,12.1609039 15.2729187,11.3111114 15.2788849,10.4784393 C15.2788849,10.4781799 15.2788849,10.4774017 15.2788849,10.4763642 L15.2788849,10.4771424 C15.2788849,10.4755859 15.2788849,10.4745483 15.2788849,10.4732514 L15.2788849,10.4735107 C15.2788849,10.4724731 15.2788849,10.4711762 15.2788849,10.4696197 C15.2788849,10.4693604 15.2788849,10.4688416 15.2788849,10.4688416 L15.2788849,10.469101 C15.2788849,10.4662476 15.2788849,10.4623566 15.2788849,10.4576874 L15.2788849,10.4644317 C15.2788849,10.4615783 15.2788849,10.4589844 15.2788849,10.4563904 C15.2788849,10.4558716 15.2788849,10.4556122 15.2788849,10.4550934 C15.2791443,10.445755 15.2791443,10.4387512 15.2791443,10.4338226 L15.2791443,10.4408264 C15.2791443,10.4361572 15.2791443,10.4309692 15.2791443,10.4255219 L15.2791443,10.4338226 C15.2791443,10.428894 15.2791443,10.425003 15.2791443,10.4237061 C15.2801819,10.2545776 15.2843322,9.61982725 15.2975616,7.56045529 C15.2975616,5.58538818 13.7422027,3.96855165 11.8332824,3.95635986 L11.8091583,3.95584103 C9.89738466,3.95584103 8.33139041,5.56385802 8.31867979,7.54048155 C8.31867979,7.53996279 8.31867979,7.53996279 8.31867979,7.54048155 L8.31867979,7.54100038 L8.31867979,7.54541016 L8.31867979,7.55293272 C8.31867979,7.55163574 8.31867979,7.55059814 8.31867979,7.54930116 L8.31867979,7.56278993 C8.31867979,7.56019591 8.31867979,7.55786133 8.31867979,7.55552675 C8.31867979,7.56253048 8.31867979,7.56901552 8.31842041,7.57498166 L8.31842041,7.58120724 C8.31842041,7.57965088 8.31842041,7.57783507 8.31842041,7.5762787 L8.31842041,7.59028624 L8.31842041,7.59962462 L8.31842041,7.60247803 C8.31816103,7.61233517 8.31816103,7.62322998 8.31816103,7.63594054 C8.31816103,7.63256836 8.31816103,7.62815859 8.31816103,7.6229706 L8.31816103,7.64164736 C8.3166046,7.87225342 8.31219482,8.57081602 8.30000304,10.4493866 C8.30000304,11.2893219 8.75135802,12.1489716 9.57443241,12.8872223 C8.92982481,13.104599 8.33683779,13.4690552 7.8499451,13.9497223 C6.38252257,15.3987274 6.51741026,17.1084289 6.51351932,17.1276245 Z" id="Shape"></path>
                    <path d="M33.4946899,28.0937348 C33.2163544,28.0771332 32.9803009,28.2877655 32.9636993,28.5645447 C32.8946991,29.7131652 32.4067688,30.7958984 31.5888824,31.6135254 C29.5105743,33.6918335 26.0753479,33.3815918 24.3921051,30.9990082 L17.9543305,21.8878632 C19.5431519,20.9161529 20.8974762,19.5667572 21.8712616,17.9844208 L30.9751434,24.4162293 C31.8049621,25.0024719 32.411438,25.8190613 32.7297211,26.7757264 C32.8171387,27.0387573 33.1014404,27.1811676 33.3634338,27.0934906 C33.6262055,27.0058136 33.7688751,26.72229 33.6817169,26.4595184 C33.2954712,25.2981873 32.5598145,24.3085785 31.5536041,23.5970459 L22.3628235,17.1037598 C26.305954,9.25303652 20.5747833,0 11.8044892,0 C9.62553407,0 7.50105284,0.593765242 5.66165158,1.71644591 C5.42481993,1.86093143 5.35063173,2.16987608 5.49511719,2.40592958 C5.63882443,2.64250185 5.94776915,2.71746826 6.18382265,2.5729828 C7.86628721,1.54602051 9.80996701,1.00309755 11.8052674,1.00309755 C19.8357544,1.00309755 24.9959869,9.42242432 21.519516,16.5452728 C18.2656098,23.2056122 9.35783388,24.7046814 4.11640929,19.394516 C-0.257064836,14.9657898 0.0326843594,7.77705382 4.64532471,3.7117462 C4.85258486,3.52783203 4.87126161,3.21084591 4.68734745,3.00358583 C4.50421143,2.79632568 4.18644716,2.77687071 3.97996523,2.96078495 C-1.13824463,7.50105284 -1.30815126,15.3271332 3.40228271,20.0993042 C7.15734863,23.9015808 12.7326202,24.5399628 17.0715942,22.3768311 L23.5729218,31.5782471 C25.6081695,34.4593964 29.7720489,34.8477173 32.2983398,32.3229828 C33.2892456,31.332077 33.8811951,30.0187378 33.9652404,28.6247254 C33.9821015,28.3484649 33.7714691,28.1105957 33.4946899,28.0937348 Z" id="Shape"></path>
                    <path d="M26.1031036,28.7090302 C26.1031036,30.1359863 27.257431,31.2908325 28.6846466,31.2908325 C30.9629517,31.2908325 32.1421814,28.5155182 30.5100402,26.8836365 C28.8908691,25.2644653 26.1031036,26.4177551 26.1031036,28.7090302 Z M28.6846466,30.287735 C27.2709198,30.287735 26.5845489,28.5769959 27.568451,27.5928345 C28.1853027,26.9757233 29.1839904,26.9757233 29.8008423,27.5928345 L29.8011017,27.5928345 C30.8003082,28.5923004 30.0763244,30.287735 28.6846466,30.287735 Z" id="Shape"></path>
                </g>
            </g>
        </g>
    </g>
</svg>