<?xml version="1.0" encoding="UTF-8"?>
<svg width="30px" height="30px" viewBox="0 0 30 30" version="1.1" xmlns="http://www.w3.org/2000/svg" xmlns:xlink="http://www.w3.org/1999/xlink">
    <!-- Generator: Sketch 51.3 (57544) - http://www.bohemiancoding.com/sketch -->
    <title>youtube</title>
    <desc>Created with Sketch.</desc>
    <defs></defs>
    <g id="Mail-file" stroke="none" stroke-width="1" fill="none" fill-rule="evenodd">
        <g id="0-Homepage" transform="translate(-1202.000000, -2407.000000)">
            <g id="Group-4" transform="translate(0.000000, 97.000000)">
                <g id="youtube" transform="translate(1202.000000, 2310.000000)">
                    <rect id="Rectangle-9-Copy-2" fill="#FFFFFF" x="0" y="0" width="30" height="30" rx="3"></rect>
                    <path d="M12.9884317,17.5858841 L12.9884317,11.9742458 C14.9806381,12.9116796 16.523602,13.8172007 18.3484631,14.7935281 C16.8433511,15.6282431 14.9806381,16.5646796 12.9884317,17.5858841 M24.0909982,9.18288702 C23.7473426,8.73012644 23.1616339,8.37809012 22.5380733,8.26140953 C20.7052433,7.9133623 9.27097442,7.91236503 7.43914059,8.26140953 C6.93909677,8.35515291 6.49383863,8.58153321 6.11133499,8.93356952 C4.49963997,10.4294745 5.00466431,18.4515145 5.39314456,19.7509573 C5.55650549,20.3134176 5.76767938,20.7193064 6.03363894,20.9855775 C6.37629845,21.3376139 6.84546307,21.5799505 7.38435491,21.6886529 C8.8934513,22.0007984 16.668037,22.1753207 22.506198,21.7355246 C23.0440937,21.6417812 23.5202311,21.3914664 23.895762,21.0244711 C25.3859324,19.5345497 25.2843299,11.0617437 24.0909982,9.18288702" id="youtube-[#168]" fill="#F60100"></path>
                </g>
            </g>
        </g>
    </g>
</svg>